<?xml version="1.0" standalone="no"?><!DOCTYPE svg PUBLIC "-//W3C//DTD SVG 1.1//EN" "http://www.w3.org/Graphics/SVG/1.1/DTD/svg11.dtd"><svg t="1583408600527" class="icon" viewBox="0 0 1024 1024" version="1.1" xmlns="http://www.w3.org/2000/svg" p-id="2862" xmlns:xlink="http://www.w3.org/1999/xlink" width="200" height="200"><defs><style type="text/css"></style></defs><path d="M843.630554 540.676415a38.143629 38.143629 0 0 0-38.115185 38.200517l0.14222 4.209737h-0.170665v364.654232H76.292236V218.489325h398.502792a38.115185 38.115185 0 1 0 0-76.287259H76.349124A76.258814 76.258814 0 0 0 0.004978 218.517769v729.194688A76.23037 76.23037 0 0 0 76.292236 1023.999716h729.194688A76.23037 76.23037 0 0 0 881.774183 947.712457v-364.654232h-0.227554a38.115185 38.115185 0 0 0-38.001408-42.38181h0.085333z" p-id="2863"></path><path d="M1002.093013 104.655765L919.405817 21.883236a75.377045 75.377045 0 0 0-106.494965 0.255998L398.450882 436.627648a33.308121 33.308121 0 0 0-7.111042 10.695007l-104.162543 245.672279c-5.404392 12.515434-2.616863 27.050404 7.111042 36.636088a32.995235 32.995235 0 0 0 36.692976 7.16793l245.757611-104.048766c3.982184-1.678206 7.594593-4.09596 10.695007-7.111042l414.431527-414.516859a75.433933 75.433933 0 0 0 0.255997-106.494964zM539.989061 566.731272l-143.415494 60.785187 60.756742-143.443939L748.171926 193.060239l82.658752 82.687196-290.870061 290.983837z m408.742693-408.799581l-64.738926 64.653594L801.277188 139.954977l64.710482-64.653594 0.227553-0.255997 82.658752 82.687196-0.227554 0.227553z" p-id="2864"></path></svg>