<?xml version="1.0" standalone="no"?><!DOCTYPE svg PUBLIC "-//W3C//DTD SVG 1.1//EN" "http://www.w3.org/Graphics/SVG/1.1/DTD/svg11.dtd"><svg t="1583074815821" class="icon" viewBox="0 0 1250 1024" version="1.1" xmlns="http://www.w3.org/2000/svg" p-id="5080" xmlns:xlink="http://www.w3.org/1999/xlink" width="244.140625" height="200"><defs><style type="text/css"></style></defs><path d="M727.159767 1024c-6.819265 0-13.63853-1.298908-20.133068-4.546177L256.630478 813.576964c-17.210526-7.793446-28.575968-25.328699-28.575968-44.162859V254.397229c0-19.158888 11.040715-36.369414 28.575968-44.162859L707.026699 4.35751a49.033763 49.033763 0 0 1 46.435947 3.247269c13.963257 9.092353 22.406157 24.354518 22.406157 40.915591v926.770594c0 16.561072-8.4429 32.147964-22.406157 40.91559-7.793446 5.195631-17.210526 7.793446-26.302879 7.793446z m-401.687185-285.759679l352.978149 161.389273V124.181739L325.472582 285.571012v452.669309z" p-id="5081"></path><path d="M276.763546 818.123141H190.710916c-102.93843 0-186.393245-83.779542-186.393245-186.393245v-239.323731c0-102.93843 83.779542-186.393245 186.393245-186.393245h86.05263c26.952333 0 48.709036 21.756703 48.709036 48.709036v515.016875c0 26.627606-21.756703 48.384309-48.709036 48.38431zM190.710916 303.106265C141.677153 303.106265 101.735743 343.047675 101.735743 392.081438v239.323731c0 49.033763 39.94141 88.975173 88.975173 88.975172h37.343594V303.106265H190.710916zM884.977044 685.634562c-12.339622 0-25.003972-4.870904-34.421052-14.287984a48.384309 48.384309 0 0 1 0-68.842104 152.686592 152.686592 0 0 0 0-215.618667 48.384309 48.384309 0 0 1 0-68.842104 48.384309 48.384309 0 0 1 68.842104 0c97.418072 97.418072 97.418072 255.884803 0 353.302875-9.41708 9.41708-22.08143 14.287984-34.421052 14.287984z" p-id="5082"></path><path d="M1027.207429 827.864948c-12.339622 0-25.003972-4.870904-34.421052-14.287984a48.384309 48.384309 0 0 1 0-68.842104c66.893743-66.893743 103.587884-155.544189 103.587884-250.039719s-36.694141-183.470703-103.587884-250.039719a48.384309 48.384309 0 0 1 0-68.842104 48.384309 48.384309 0 0 1 68.842105 0c85.07845 85.07845 132.163851 198.40814 132.163851 318.881823s-47.085402 233.803373-132.163851 318.881823c-9.41708 9.41708-22.08143 14.287984-34.421053 14.287984zM569.017763 609.648466c-17.85998 0-32.472691-14.612711-32.472691-32.472691v-150.673285c0-17.85998 14.612711-32.472691 32.472691-32.472691s32.472691 14.612711 32.472691 32.472691v150.673285c0 17.85998-14.612711 32.472691-32.472691 32.472691zM569.017763 383.638538c-17.85998 0-32.472691-14.612711-32.472691-32.47269V301.157904c0-17.85998 14.612711-32.472691 32.472691-32.472691s32.472691 14.612711 32.472691 32.472691v50.332671c0 17.85998-14.612711 32.147964-32.472691 32.147963z" p-id="5083"></path></svg>