<?xml version="1.0" standalone="no"?><!DOCTYPE svg PUBLIC "-//W3C//DTD SVG 1.1//EN" "http://www.w3.org/Graphics/SVG/1.1/DTD/svg11.dtd"><svg t="1585303184672" class="icon" viewBox="0 0 1024 1024" version="1.1" xmlns="http://www.w3.org/2000/svg" p-id="2900" xmlns:xlink="http://www.w3.org/1999/xlink" width="128" height="128"><defs><style type="text/css"></style></defs><path d="M66.34 476.891h406.017V70.802H66.34v406.09z m54.858-351.232h296.301v296.375H121.198V125.66zM544.841 70.802v406.09h406.016V70.801H544.841zM896 422.034H599.698V125.66H896v296.375zM66.34 945.737h406.017V539.648H66.34v406.09z m54.858-351.232h296.301v296.302H121.198V594.505zM544.841 945.737h406.016V539.648H544.841v406.09z m92.892-218.77c18.212-3.218 33.938 7.68 48.932 23.698s25.38 37.815 30.793 38.912c5.34 1.097 16.092-35.474 46.3-78.775 27.209-38.985 72.265-88.503 93.623-94.94s43.812-2.925 41.691 4.536c-2.121 7.46-49.445 46.884-71.826 76.8s-51.64 81.554-69.632 123.684c-12.947 30.355-13.532 34.45-27.429 41.984-13.897 7.46-40.594 12.8-46.007 8.558-5.34-4.242-8.923-27.575-29.184-61.733-20.333-34.23-32.621-37.156-56.173-53.467-10.972-7.607 20.772-26.039 38.912-29.257z" p-id="2901"></path></svg>