<?xml version="1.0" standalone="no"?><!DOCTYPE svg PUBLIC "-//W3C//DTD SVG 1.1//EN" "http://www.w3.org/Graphics/SVG/1.1/DTD/svg11.dtd"><svg t="1578885175308" class="icon" viewBox="0 0 1024 1024" version="1.1" xmlns="http://www.w3.org/2000/svg" p-id="7041" xmlns:xlink="http://www.w3.org/1999/xlink" width="200" height="200"><defs><style type="text/css"></style></defs><path d="M900.888078 944.469666l-8.002254 15.283078-20.599154 0L145.305387 959.752744l-23.451108 0 0.448208-23.285333c0.896416-43.934628 5.482875-103.485933 20.87647-161.862481 15.94925-60.111053 43.375903-119.101585 90.167602-159.570275l6.712889-5.653767 8.676613 0.060375 102.255918-1.007957 0 47.402613-93.579305-0.781806c-35.036981 33.414017-56.587809 81.490989-69.684082 131.025149-11.867282 44.604894-16.790408 90.222861-18.694781 128.001279l686.015266-0.11154c1.178849-43.153846-11.419074-94.139054-26.919093-141.93871-15.615653-48.243771-37.893029-89.326445-64.701604-117.701702L656.527674 654.328589l0-45.89426 122.180713 0 9.402137 3.078105c35.766598 33.414017 64.86738 87.87028 83.844593 146.524145C891.822608 819.435974 906.653385 891.580085 900.888078 944.469666L900.888078 944.469666 900.888078 944.469666zM519.012717 883.35168l-61.117986-45.779649 39.567157-158.788469-14.941294-24.514323 1.173732-25.075095c28.545126-1.566682 36.94033-1.566682 65.481364 0l1.178849 25.075095-15.000646 24.514323 44.776809 158.729118L519.012717 883.35168 519.012717 883.35168 519.012717 883.35168zM695.871751 423.004083c-15.669888 54.06843-37.050848 94.53712-65.703421 124.533294-30.838356 32.350802-69.573565 51.715849-118.098745 61.903885l-3.916193 0.781806-3.920286-0.615007c-43.824111-7.331989-82.498946-25.915229-114.677832-58.598606-29.554106-29.947056-53.115732-71.584362-69.573565-127.053698-13.767562-7.442506-24.121374-19.869536-31.116695-36.492122-7.668657-18.301831-11.252275-42.197054-10.804067-70.520123l0.171915-10.914584 9.175987-6.15314c3.079128-2.12643 6.213515-3.974521 9.29162-5.653767-13.93743-85.073584-10.299577-157.499104 41.35999-205.741851 41.082674-29.831422 113.225761-9.459442 179.327248-19.310811 188.559517-28.207435 187.270151 67.049069 206.076472 228.519624 1.118474 0.675382 2.181689 1.345648 3.304256 2.131547l9.17701 6.152117 0.170892 10.914584c0.444115 27.759227-2.912329 51.210335-10.299577 69.40165C719.100802 402.857231 709.139939 415.338496 695.871751 423.004083L695.871751 423.004083 695.871751 423.004083zM673.2618 338.045109l-2.852978-9.628288-6.15621 0.39295-3.527336-18.413372c-2.741437-14.385639-6.883781-88.822978-12.369725-101.026928-16.286941 6.827499-34.588773-5.764284-51.1561-15.22168l-8.395204 26.025747-13.428847-1.733481 1.789763-15.841803-14.271028 22.615067-12.648065-2.51938 12.477172-33.580816c-66.712401 46.062082-181.676759 43.708478-196.844204 23.11444-2.348488 2.908236-2.796696 7.049556-4.081968 10.68741-3.134387 12.426007-6.661723 89.719394-9.739828 102.034884l-0.842181 4.530177-0.332575-0.054235c-0.674359 2.518357-1.289366 4.700045-1.959631 6.605442-5.709025-3.749394-17.294898-0.785899-27.704992 0.780783 1.007957 13.715373 3.301186 25.301246 7.16519 34.310434 3.804652 9.181103 9.06547 15.112186 15.670911 17.127076l11.302417 3.472078 3.079128 11.30344c14.552437 53.17099 35.484166 91.844801 61.732993 118.486578 24.459065 24.796756 53.845349 39.349193 87.198991 45.557592 37.948287-8.562003 68.061119-23.895223 91.845825-48.748261 25.189705-26.359344 43.934628-63.913659 57.983599-115.800399l2.912329-10.79895 10.68741-3.753487c6.493901-2.237971 11.644201-8.27957 15.393595-17.45965 3.637854-8.954953 5.931083-20.262486 6.883781-33.636075C686.806281 336.982918 680.482249 337.148693 673.2618 338.045109L673.2618 338.045109 673.2618 338.045109zM673.2618 338.045109" p-id="7042"></path></svg>