<?xml version="1.0" standalone="no"?><!DOCTYPE svg PUBLIC "-//W3C//DTD SVG 1.1//EN" "http://www.w3.org/Graphics/SVG/1.1/DTD/svg11.dtd"><svg t="1583074956178" class="icon" viewBox="0 0 1024 1024" version="1.1" xmlns="http://www.w3.org/2000/svg" p-id="9736" xmlns:xlink="http://www.w3.org/1999/xlink" width="200" height="200"><defs><style type="text/css"></style></defs><path d="M423.383 622.146c0.137 0.022 0.262 0.061 0.397 0.084l150.633 23.422 56.428 143.025c7.705 19.527 26.407 31.443 46.201 31.443a49.584 49.584 0 0 0 18.215-3.476c25.502-10.066 38.023-38.904 27.966-64.405l-66.87-169.487c-6.457-16.357-21.19-28.141-38.56-30.843L492.99 532.496c-0.647-29.288 2.579-59.619 7.191-88.516a273.558 273.558 0 0 1-24.24-21.506c-33.544-33.38-50.422-66.104-54.8-75.336l-0.025-0.055-0.17-0.367c-4.397-9.656-4.764-20.453-1.04-30.384 3.72-9.933 11.096-17.824 20.752-22.21a39.317 39.317 0 0 1 16.431-3.574c15.542 0 29.741 9.136 36.172 23.275l0.196 0.391c0.293 0.6 0.78 1.563 1.465 2.841 1.384 2.605 3.713 6.758 6.953 11.813 3.79 5.933 9.28 13.8 16.412 22.348 7.162-37.544-7.932-78.947-39.432-86.797-33.91-8.456-83.067 9.962-103.067 68.123-27.03 80.14-32.842 132.299-22.57 220.54 9.935 51.121 39.937 65.561 70.165 69.064z m389.366-75.293c33.45 0 33.45-121.154 0-121.154-33.454 0-60.576 27.12-60.576 60.576s27.12 60.578 60.576 60.578z" fill="#8A8A8A" p-id="9737"></path><path d="M495.186 333.158c-3.342-5.22-5.76-9.515-7.28-12.355a93.812 93.812 0 0 1-1.602-3.123 24.493 24.493 0 0 0-0.283-0.568h0.004c-7.272-15.976-26.108-23.034-42.084-15.763-15.983 7.262-23.034 26.1-15.772 42.074 1.057 2.187 17.04 37.265 53.39 73.429 35.956 35.955 94.447 73.224 175.069 73.228h0.448c4.725 0 9.482-0.13 14.28-0.375 17.528-0.895 31.014-15.82 30.12-33.35-0.892-17.526-15.828-31.01-33.345-30.115a216.08 216.08 0 0 1-11.055 0.285c-60.88-0.131-102.24-26.817-130.763-54.805-14.08-13.947-24.449-28.117-31.127-38.562z m66.673-104.194c-10.93 5.85-22.678 7.68-34.626 7.68-10.439-0.008-21.096-1.372-31.853-2.775-10.037-1.304-18.898-3.37-26.804-6.185 12.14 15.704 29.555 27.493 50.397 32.342 48.06 11.197 96.095-18.696 107.297-66.754 4.95-21.267 1.848-42.52-7.305-60.586-16.003 1.964-37.538 5.947-48.409 14.34-4.962 3.807-7.479 7.811-7.52 12.988 0 0.267 0.008 0.541 0.03 0.848 1.019 19.219 5.391 32.602 5.455 45.884 0.018 6.848-1.307 13.682-5.032 20.598a3.97 3.97 0 0 1-1.63 1.62z" fill="#8A8A8A" p-id="9738"></path><path d="M446.44 205.132c10.97 11.034 26.689 17.805 49.973 20.863 10.731 1.405 21.09 2.711 30.82 2.701 10.748 0 20.666-1.567 29.798-6.175 2.636-5.316 3.531-10.238 3.546-15.777 0.063-11.36-4.31-25.269-5.44-45.431a25.33 25.33 0 0 1-0.047-1.299c-0.033-8.181 4.503-14.747 10.682-19.33 6.206-4.666 14.207-7.867 22.645-10.28 14.588-4.145 30.628-5.83 40.442-6.738a102.692 102.692 0 0 0-11.096-34.037c-15.178-28.48-43.367-49.433-77.793-53.932a103.498 103.498 0 0 0-13.513-0.881h-0.019c-51.06 0.002-95.467 37.894-102.252 89.911-0.59 4.524-0.88 9.02-0.88 13.458 0 6.14 0.548 12.183 1.605 18.09 3.924 22.007 10.547 37.81 21.528 48.857z m539.099 534.872c-38.493-50.156-92.033-59.882-129.69-59.378a2610.23 2610.23 0 0 1-7.354-20.066c-23.077-63.801-74.902-94.19-105.405-107.04l-29.407-85.765c-0.926-2.687-2.427-5.085-4.327-7.115-1.321 19.792-17.3 35.965-37.594 37.008a294.35 294.35 0 0 1-14.688 0.383h-0.448c-13.495-0.002-26.321-0.998-38.495-2.802a19.852 19.852 0 0 0 1.258 7.508c3.87 10.26 15.331 15.432 25.598 11.559v-0.008l37.759-14.27 89.606 261.32c15.512-16.951 35.11-29.835 57.475-37.42 14.381-4.875 29.32-7.354 44.378-7.354 47.977 0 91.57 24.74 116.54 63.96 14.862-0.711 18.667-9.413-5.206-40.52z" fill="#8A8A8A" p-id="9739"></path><path d="M836.209 742.724c-61.895 20.985-95.062 88.178-74.074 150.075 20.985 61.895 88.172 95.062 150.075 74.076 61.897-20.986 95.062-88.18 74.076-150.075-20.988-61.897-88.175-95.064-150.077-74.076z m53.012 156.35c-24.453 8.294-51.003-4.817-59.287-29.264-8.287-24.453 4.819-51.003 29.263-59.287 24.454-8.295 51.004 4.819 59.288 29.263 8.294 24.454-4.809 50.994-29.264 59.288zM737.54 834.013H484.276c-21.897-44.175-29.425-89.27-31.92-118.608 6.502-1.99 11.262-7.97 11.262-15.124v-43.694c0-8.776-7.113-15.89-15.888-15.89H123.99c-8.774 0-15.888 7.112-15.888 15.89v43.694c0 8.776 7.114 15.888 15.888 15.888h1.751c-17.256 42.343-43.887 115.735-43.887 165.511h68.49c-5.958-29.726-2.026-60.414 11.614-88.05 16.347-33.101 44.595-57.868 79.554-69.711 14.392-4.883 29.318-7.35 44.387-7.35 59.25 0 111.843 37.713 130.875 93.857 8.063 23.776 9.216 48.243 4.61 71.252h317.282c-3.174-15.816-3.543-31.905-1.126-47.665z" fill="#8A8A8A" p-id="9740"></path><path d="M247.89 742.724c-61.897 20.985-95.062 88.18-74.076 150.075 20.986 61.897 88.172 95.062 150.075 74.076 61.897-20.988 95.062-88.18 74.076-150.075-20.99-61.897-88.172-95.064-150.075-74.076z m53.012 156.35c-24.455 8.294-51.003-4.817-59.29-29.264-8.285-24.453 4.82-51.003 29.267-59.287 24.453-8.295 51.001 4.819 59.287 29.263 8.295 24.454-4.808 50.994-29.264 59.288z m17.961-300.764V350.963c0-11.707-9.488-21.2-21.196-21.2H46.78c-11.706 0-21.194 9.493-21.194 21.2V598.31c0 11.712 9.488 21.203 21.194 21.203h250.89c11.706-0.002 21.194-9.493 21.194-21.203zM230.95 434.019l-74.152 158.88c-1.192 2.29-3.113 3.432-5.767 3.432-0.367 0-1.008-0.092-1.923-0.272-1.557-0.459-2.724-1.327-3.502-2.611-0.779-1.28-0.985-2.652-0.619-4.117l27.052-110.954-55.75 13.869c-0.367 0.092-0.916 0.137-1.65 0.137-1.648 0-3.065-0.5-4.255-1.51-1.649-1.373-2.245-3.16-1.786-5.355l27.601-113.289c0.367-1.282 1.1-2.335 2.198-3.158 1.1-0.825 2.38-1.235 3.844-1.235h45.04c1.736 0 3.202 0.572 4.392 1.718 1.19 1.145 1.786 2.495 1.786 4.051 0 0.734-0.231 1.557-0.688 2.47l-23.48 63.578 54.378-13.457c0.735-0.182 1.282-0.274 1.65-0.274 1.74 0.004 3.298 0.69 4.67 2.062 1.649 1.825 1.968 3.838 0.96 6.035z" fill="#8A8A8A" p-id="9741"></path></svg>