<?xml version="1.0" standalone="no"?><!DOCTYPE svg PUBLIC "-//W3C//DTD SVG 1.1//EN" "http://www.w3.org/Graphics/SVG/1.1/DTD/svg11.dtd"><svg t="1583819581081" class="icon" viewBox="0 0 1024 1024" version="1.1" xmlns="http://www.w3.org/2000/svg" p-id="2288" xmlns:xlink="http://www.w3.org/1999/xlink" width="200" height="200"><defs><style type="text/css"></style></defs><path d="M512 1024C229.2224 1024 0 794.7776 0 512S229.2224 0 512 0s512 229.2224 512 512-229.2224 512-512 512z m137.1648-607.6416H309.1456a40.0896 40.0896 0 0 0-39.8848 40.2944c0 22.272 17.8688 40.2944 39.8848 40.2944h413.696c17.5104 0 33.4848-10.24 40.9088-26.2656a46.08 46.08 0 0 0-6.1952-48.64L631.9616 269.824a39.5776 39.5776 0 0 0-55.5008-4.4544 40.6016 40.6016 0 0 0-5.6832 56.0128l78.336 95.0272zM453.2736 753.152l-78.336-95.0784h339.968c22.016 0 39.8336-18.0224 39.8336-40.2944a40.0896 40.0896 0 0 0-39.8848-40.2944h-413.696c-17.5104 0-33.4848 10.24-40.9088 26.3168a46.08 46.08 0 0 0 6.1952 48.5888l125.5936 152.32a39.5776 39.5776 0 0 0 56.1152 5.12 40.6016 40.6016 0 0 0 5.12-56.6784z" p-id="2289"></path></svg>