<?xml version="1.0" standalone="no"?><!DOCTYPE svg PUBLIC "-//W3C//DTD SVG 1.1//EN" "http://www.w3.org/Graphics/SVG/1.1/DTD/svg11.dtd"><svg t="1583074869853" class="icon" viewBox="0 0 1024 1024" version="1.1" xmlns="http://www.w3.org/2000/svg" p-id="7367" xmlns:xlink="http://www.w3.org/1999/xlink" width="200" height="200"><defs><style type="text/css"></style></defs><path d="M512 64C265.6 64 64 265.6 64 512s201.6 448 448 448 448-201.6 448-448S758.4 64 512 64z" fill="#FFFFFF" p-id="7368"></path><path d="M512 0C230.4 0 0 230.4 0 512s230.4 512 512 512 512-230.4 512-512S793.6 0 512 0z m0 960C265.6 960 64 758.4 64 512S265.6 64 512 64s448 201.6 448 448-201.6 448-448 448z" fill="" p-id="7369"></path><path d="M188.8 518.4v-67.2h646.4v67.2H412.8c-9.6 25.6-22.4 48-32 64h374.4v137.6c0 64-35.2 96-105.6 96h-172.8v-60.8h128c32 0 44.8-16 44.8-44.8v-60.8H284.8v-67.2c12.8-19.2 22.4-41.6 25.6-64H188.8z m76.8-105.6V208h496v124.8c3.2 54.4-25.6 80-80 80h-416z m96-64h272c19.2 0 28.8-9.6 28.8-28.8V272h-300.8v76.8z" fill="" p-id="7370"></path></svg>