<?xml version="1.0" standalone="no"?><!DOCTYPE svg PUBLIC "-//W3C//DTD SVG 1.1//EN" "http://www.w3.org/Graphics/SVG/1.1/DTD/svg11.dtd"><svg t="1583074854629" class="icon" viewBox="0 0 1024 1024" version="1.1" xmlns="http://www.w3.org/2000/svg" p-id="6617" xmlns:xlink="http://www.w3.org/1999/xlink" width="200" height="200"><defs><style type="text/css"></style></defs><path d="M941.738667 0c45.482667 0 82.261333 36.778667 82.261333 82.261333v859.477334a82.261333 82.261333 0 0 1-82.261333 82.261333H82.261333A82.261333 82.261333 0 0 1 0 941.738667V82.261333C0 36.778667 36.778667 0 82.261333 0h859.477334z m0 941.738667V82.261333H82.261333v859.477334h859.477334zM406.869333 772.608a41.130667 41.130667 0 1 1 0-82.346667h356.522667a41.130667 41.130667 0 1 1 0 82.346667H406.869333z m0-438.869333a41.130667 41.130667 0 1 1 0-82.346667h356.522667a41.130667 41.130667 0 1 1 0 82.346667H406.869333z m0 219.392a41.130667 41.130667 0 1 1 0-82.261334h356.522667a41.130667 41.130667 0 1 1 0 82.261334H406.869333zM260.608 772.608a41.130667 41.130667 0 1 1 0-82.346667 41.130667 41.130667 0 0 1 0 82.346667z m0-438.869333a41.130667 41.130667 0 1 1 0-82.346667 41.130667 41.130667 0 0 1 0 82.346667z m0 219.392a41.130667 41.130667 0 1 1 0-82.261334 41.130667 41.130667 0 0 1 0 82.261334z" p-id="6618"></path></svg>