<?xml version="1.0" standalone="no"?><!DOCTYPE svg PUBLIC "-//W3C//DTD SVG 1.1//EN" "http://www.w3.org/Graphics/SVG/1.1/DTD/svg11.dtd"><svg t="1585298329316" class="icon" viewBox="0 0 1024 1024" version="1.1" xmlns="http://www.w3.org/2000/svg" p-id="2266" xmlns:xlink="http://www.w3.org/1999/xlink" width="128" height="128"><defs><style type="text/css"></style></defs><path d="M209.92 226.304h604.16c11.776 0 20.992-9.728 20.992-20.992 0-11.264-9.216-20.48-20.48-20.992h-604.16c-11.776 0-20.992 9.216-20.992 20.48-0.512 12.288 8.704 21.504 20.48 21.504zM965.632 587.776l-130.56-226.304v-71.68c0-11.264-9.216-20.992-20.48-20.992h-604.16c-11.776 0-20.992 9.216-20.992 20.48v71.68l-130.56 226.304c-4.096 6.144-5.632 13.824-4.608 21.504v326.144c0 19.456 15.872 34.816 34.816 34.816h846.336c19.456 0 34.816-15.872 34.816-34.816v-326.144c1.024-7.168-0.512-14.848-4.608-20.992z m-130.56-86.016l44.032 76.8h-44.032v-76.8z m-603.648-190.464h561.152v266.752h-64c-17.408 0-32.256 12.8-34.816 30.208-6.656 43.008-29.184 82.432-62.464 110.592-33.28 28.672-75.264 44.032-119.296 44.032-44.032 0-86.016-15.36-119.808-44.032-32.768-27.648-54.272-66.048-61.952-108.032-1.024-17.92-15.872-32.256-34.304-32.768h-65.024v-266.752z m-42.496 190.464v76.8h-44.032l44.032-76.8z m-64.512 397.824v-250.88h142.848c13.824 48.128 41.472 91.648 79.36 124.416 44.032 37.376 101.888 60.416 164.864 60.416 60.416 0 118.784-21.504 164.864-60.416 37.888-32.768 65.536-75.776 79.36-124.416h143.36v250.88h-774.656zM209.92 141.824h604.16c11.776 0 20.992-9.728 20.992-21.504 0-11.264-9.216-20.48-20.48-20.992H209.92c-11.264 0-20.992 9.216-20.992 20.48 0 12.288 9.216 22.016 20.992 22.016z" p-id="2267"></path><path d="M369.664 642.56l1.536-2.048c11.264-16.896 18.944-29.184 23.552-36.352 4.608-7.68 9.216-19.456 14.848-35.328 5.12-15.872 8.704-30.208 10.752-43.008l4.608-33.792 2.048-15.36c1.536-11.264 2.048-25.088 2.048-41.472 0-16.384 0-27.648-0.512-33.792l-2.048-18.944v-5.12l9.216-1.536 12.8 32.256 80.384-8.192c-0.512 0-2.048-4.608-4.608-13.312-2.56-9.216-7.68-19.968-15.36-33.792l7.68-5.632 0.512 0.512c0 0.512 2.048 2.048 5.632 4.608l24.064 23.04c2.56 2.048 4.096 3.584 4.096 4.096 0 0.512 0.512 1.024 0.512 1.536-0.512 3.072-3.072 8.704-7.68 17.408l39.936-4.096c12.288-1.024 24.064-3.072 34.816-6.656 1.536 1.536 3.584 4.096 6.656 6.656s5.632 5.12 7.68 7.68 2.048 4.608 1.024 5.632c-1.536 1.024-3.584 1.536-7.168 1.536l-92.672 7.168 12.8 14.848c-6.656 5.632-11.264 9.728-13.312 12.8-2.048 3.072-3.584 7.168-5.632 12.288l49.664-5.632c9.216-1.024 18.944-3.584 29.696-7.68 1.536 1.536 4.608 4.608 9.728 8.192s7.68 6.144 8.192 7.168c0 1.024 0 2.048-1.024 3.072-1.536 1.536-4.096 2.56-7.68 2.56l-81.408 8.192 23.04 17.408c-4.096 4.096-7.168 8.192-8.192 12.288s-1.536 8.192-1.536 12.8v5.632c14.848-1.024 29.184-4.096 41.984-9.216 1.536 1.536 4.096 3.584 9.216 7.168 4.608 3.584 7.68 6.144 8.192 7.68 1.024 1.536 1.024 3.072 0 4.608-1.024 1.536-2.56 2.048-4.608 2.048l-55.296 5.632-0.512 29.696 39.424-4.096c10.752-1.024 22.528-3.072 35.328-7.168 3.072 1.536 7.168 4.608 12.288 8.704 5.12 4.096 7.68 7.168 7.68 8.704-0.512 2.56-3.584 4.096-9.216 4.608l-86.016 7.168-1.536 48.64c-0.512 16.384-1.536 26.112-3.072 28.672s-3.072 4.096-4.608 4.096c-2.048 0.512-6.144-3.584-11.264-11.264-5.632-8.192-7.68-12.8-6.656-14.336 0-0.512 0.512-1.536 1.536-2.56l4.608-6.656c0.512-1.024 1.024-3.072 1.536-6.656 0.512-3.584 0.512-12.288 0.512-26.112V587.264l-45.056 4.608c-2.048 0.512-8.704 1.536-19.456 3.072-10.752 1.536-17.92 2.56-20.992 2.048-2.048 0-5.12-2.048-9.216-6.656s-6.144-7.168-6.144-7.168c0-0.512-0.512-1.024-0.512-1.536 0-0.512 0.512-1.536 1.536-3.072 1.024-1.024 3.584-1.536 7.68-2.048l92.16-5.632 0.512-30.208-44.544 5.12-4.608 0.512-7.168 5.12c-1.536 1.536-3.584 1.024-5.12-0.512l-7.168-6.656c-4.608-3.584-6.656-6.144-6.656-8.192 0-1.024 0.512-2.048 2.048-3.072l12.288-7.68c1.536-1.536 4.096-5.12 7.68-10.752l16.896-30.208 3.072-7.168c-20.992 1.536-32.256 3.072-32.768 4.096-1.024 1.024-1.536 1.024-1.536 0.512l-10.752-8.192-4.096-4.096-4.096 34.304c-1.536 14.848-5.632 32.256-10.752 51.2-5.632 18.944-9.728 31.232-12.8 37.376-3.072 6.144-8.704 15.36-16.896 27.648-8.192 12.288-13.312 19.456-15.36 21.504l-5.12 5.12-4.096 4.608-7.168-8.704z m77.312-176.128c1.536-1.536 5.12-2.56 10.752-3.072l47.616-4.096c1.024-2.048 1.536-4.096 2.56-5.12l8.192-20.48c1.024-2.048 1.536-4.096 2.048-5.12v-4.608l1.536-3.072-0.512-2.048-69.12 6.656-3.072 40.96z m43.008 60.928l38.912-4.608c1.536-11.264 1.536-20.48 0.512-28.16-1.024-7.68-1.536-12.8-2.56-14.848l-2.56-4.608 1.536-1.536-5.632 0.512-30.208 53.248z" p-id="2268"></path></svg>