<?xml version="1.0" standalone="no"?><!DOCTYPE svg PUBLIC "-//W3C//DTD SVG 1.1//EN" "http://www.w3.org/Graphics/SVG/1.1/DTD/svg11.dtd"><svg t="1585303220075" class="icon" viewBox="0 0 1024 1024" version="1.1" xmlns="http://www.w3.org/2000/svg" p-id="4268" xmlns:xlink="http://www.w3.org/1999/xlink" width="128" height="128"><defs><style type="text/css"></style></defs><path d="M215.818 150C179.468 150 150 179.468 150 215.818v592.364c0 36.35 29.468 65.818 65.818 65.818h592.364c36.35 0 65.818-29.468 65.818-65.818V215.818c0-36.35-29.468-65.818-65.818-65.818H215.818zM224 64h576c88.366 0 160 71.634 160 160v576c0 88.366-71.634 160-160 160H224c-88.366 0-160-71.634-160-160V224c0-88.366 71.634-160 160-160z" p-id="4269"></path><path d="M192 698.685V832h133.315l393.19-393.19L585.19 305.495 192 698.685z m629.601-362.972c13.865-13.864 13.865-36.261 0-50.126l-83.188-83.188c-13.865-13.865-36.262-13.865-50.126 0l-65.058 65.057 133.315 133.315 65.057-65.058z" p-id="4270"></path></svg>