<?xml version="1.0" standalone="no"?><!DOCTYPE svg PUBLIC "-//W3C//DTD SVG 1.1//EN" "http://www.w3.org/Graphics/SVG/1.1/DTD/svg11.dtd"><svg t="1585364572121" class="icon" viewBox="0 0 1024 1024" version="1.1" xmlns="http://www.w3.org/2000/svg" p-id="2838" xmlns:xlink="http://www.w3.org/1999/xlink" width="128" height="128"><defs><style type="text/css"></style></defs><path d="M49.545846 182.744615C22.173538 182.744615 0 159.468308 0 130.756923 0 102.045538 22.173538 78.769231 49.545846 78.769231h924.908308C1001.826462 78.769231 1024 102.045538 1024 130.756923c0 28.711385-22.173538 51.987692-49.545846 51.987692H49.545846z m0 381.243077C22.173538 563.987692 0 540.711385 0 512c0-28.711385 22.173538-51.987692 49.545846-51.987692h924.908308c27.372308 0 49.545846 23.276308 49.545846 51.987692 0 28.711385-22.173538 51.987692-49.545846 51.987692H49.545846z m0 381.243077C22.173538 945.230769 0 921.954462 0 893.243077c0-28.711385 22.173538-51.987692 49.545846-51.987692h924.908308c27.372308 0 49.545846 23.276308 49.545846 51.987692 0 28.711385-22.173538 51.987692-49.545846 51.987692H49.545846z" p-id="2839"></path></svg>