<?xml version="1.0" standalone="no"?><!DOCTYPE svg PUBLIC "-//W3C//DTD SVG 1.1//EN" "http://www.w3.org/Graphics/SVG/1.1/DTD/svg11.dtd"><svg t="1585298349536" class="icon" viewBox="0 0 1024 1024" version="1.1" xmlns="http://www.w3.org/2000/svg" p-id="3176" xmlns:xlink="http://www.w3.org/1999/xlink" width="128" height="128"><defs><style type="text/css"></style></defs><path d="M417.831 700.337a18.64 18.64 0 0 1-8.437-1.996 18.865 18.865 0 0 1-10.396-16.838V342.497c0-7.12 4.03-13.674 10.396-16.838s14.012-2.486 19.738 1.77l226.004 169.504c4.746 3.54 7.534 9.153 7.534 15.067s-2.788 11.526-7.534 15.067L429.132 696.57a18.863 18.863 0 0 1-11.3 3.767z m18.834-320.173v263.672L612.46 512 436.665 380.164z" p-id="3177"></path><path d="M869.84 210.66H154.16c-10.397 0-18.834 8.438-18.834 18.834v565.012c0 10.396 8.437 18.833 18.834 18.833h715.68c10.397 0 18.834-8.437 18.834-18.833V229.494c0-10.396-8.437-18.833-18.834-18.833zM248.328 549.668h-75.335v-75.334h75.335v75.334z m0-113.002h-75.335V361.33h75.335v75.335z m-75.335 150.67h75.335v75.335h-75.335v-75.335z m113.003-339.007h452.008v527.344H285.996V248.328z m489.676 226.005h75.335v75.334h-75.335v-75.334z m0-37.668V361.33h75.335v75.335h-75.335z m0 150.67h75.335v75.335h-75.335v-75.335z m75.335-263.672h-75.335v-75.335h75.335v75.335z m-602.679-75.335v75.335h-75.335v-75.335h75.335z m-75.335 452.01h75.335v75.334h-75.335v-75.335z m602.679 75.334v-75.335h75.335v75.335h-75.335z" p-id="3178"></path></svg>