<?xml version="1.0" standalone="no"?><!DOCTYPE svg PUBLIC "-//W3C//DTD SVG 1.1//EN" "http://www.w3.org/Graphics/SVG/1.1/DTD/svg11.dtd"><svg t="1583074889139" class="icon" viewBox="0 0 1024 1024" version="1.1" xmlns="http://www.w3.org/2000/svg" p-id="8106" xmlns:xlink="http://www.w3.org/1999/xlink" width="200" height="200"><defs><style type="text/css"></style></defs><path d="M155.733333 439.466667C209.066667 258.133333 324.266667 128 537.6 108.8c14.933333-2.133333 34.133333 0 51.2-4.266667 14.933333-2.133333 32-12.8 49.066667-19.2C704 59.733333 853.333333 10.666667 928 70.4c66.133333 51.2 53.333333 177.066667 12.8 258.133333 32 64 55.466667 155.733333 42.666667 256-187.733333 8.533333-409.6 0-593.066667 4.266667 6.4 98.133333 68.266667 172.8 157.866667 183.466667s151.466667-40.533333 189.866666-96h226.133334c-59.733333 168.533333-209.066667 298.666667-439.466667 281.6-53.333333-4.266667-93.866667-19.2-138.666667-36.266667-76.8 40.533333-243.2 102.4-311.466666 17.066667-51.2-66.133333-19.2-185.6 10.666666-262.4 55.466667-157.866667 164.266667-313.6 268.8-401.066667 0-2.133333 4.266667-4.266667 4.266667-6.4-83.2 38.4-138.666667 108.8-202.666667 170.666667zM951.466667 192c-2.133333-113.066667-149.333333-102.4-226.133334-55.466667 85.333333 34.133333 149.333333 91.733333 200.533334 162.133334 10.666667-34.133333 25.6-64 25.6-106.666667zM390.4 469.333333h358.4c-8.533333-232.533333-345.6-213.333333-358.4 0zM125.866667 874.666667c17.066667 102.4 162.133333 72.533333 226.133333 25.6-85.333333-46.933333-138.666667-128-181.333333-219.733334-19.2 49.066667-57.6 125.866667-44.8 194.133334z" p-id="8107"></path></svg>